# xmcd
#
# Track frame offsets: 
#        150
#        18244
#        36611
#        55780
#        69975
#        91907
#        106061
#        118868
#        130659
#        145300
#        159308
#        172685
#        196789
#        214793
#        242310
#        265849
#        286521
#        302411
#
# Disc length: 4347 seconds
#
# Revision: 0
# Processed by: cddbd v1.5.1PL2 Copyright (c) Steve Scherf et al.
# Submitted via: ExactAudioCopy v0.95b3
#
DISCID=e210f912
DTITLE=Various Artist - Old No. 7
DYEAR=2000
DGENRE=Country
TTITLE0=Charlie Daniels Band - The South's Gonna Do It Again
TTITLE1=Charlie Daniels Band - Long Haired Country Boy
TTITLE2=Hank Williams Jr. - A Country Boy Can Survive
TTITLE3=Hank Williams Jr. - Whiskey Bent and Hell Bound
TTITLE4=David Allan Coe - If That Ain't Country
TTITLE5=Hank Williams Jr. - The Ride
TTITLE6=Hank Williams Jr. - Women I've Never Had
TTITLE7=Hank Williams Jr. - Dixie On My Mind
TTITLE8=David Allan Coe - Willie, Waylan and Me
TTITLE9=David Allan Coe - She Used to Love Me Alot
TTITLE10=Charlie Daniels Band - Let It Roll
TTITLE11=Charlie Daniels Band - Uneasy Rider
TTITLE12=Marshall Tucker Band - Fire on the Mountain
TTITLE13=Marshall Tucker Band - Can't You See
TTITLE14=The Allman Brothers - Blue Sky
TTITLE15=The Band - The Weight
TTITLE16=The Band -Ophelia
TTITLE17=David Allan Coe - You Never Even Called Me By My Name
EXTD=
EXTT0=
EXTT1=
EXTT2=
EXTT3=
EXTT4=
EXTT5=
EXTT6=
EXTT7=
EXTT8=
EXTT9=
EXTT10=
EXTT11=
EXTT12=
EXTT13=
EXTT14=
EXTT15=
EXTT16=
EXTT17=
PLAYORDER=
